<svg xmlns="http://www.w3.org/2000/svg" viewBox="0 0 48 48" width="160" height="160" data-accessory="none" data-lamp="off" data-size="full" role="img" aria-label="Archie — Error"><style>.archie-lamp,.archie-goggles,.archie-torch-dot,.archie-nose-sm{display:none}svg[data-accessory="lamp"] .archie-lamp,svg[data-accessory="goggles"] .archie-goggles{display:inline}svg[data-lamp="off"] .archie-beam{display:none}svg[data-lamp="off"] .archie-lens{fill:var(--archie-body, #ffffff)}svg[data-lamp="off"] .archie-halo{display:none}svg[data-size="small"] #torch{display:none}svg[data-size="small"] .archie-nose{display:none}svg[data-size="small"] .archie-torch-dot,svg[data-size="small"] .archie-nose-sm{display:inline}</style><g fill="none" stroke="var(--archie-ink, #111113)" stroke-width="2" stroke-linejoin="round" stroke-linecap="round"><g id="base" class="archie-base"><g class="archie-torch-dot"><circle class="archie-halo" cx="9.4" cy="43.4" r="7.2" stroke="none" fill="var(--archie-accent-2, #e2ddf0)"/><circle class="archie-lens" cx="9.4" cy="43.4" r="3.4" fill="var(--archie-accent, #7c6bb3)" stroke-width="1.8"/></g><g id="torch" class="archie-torch" transform="translate(9.4 43.4) rotate(14)"><path id="torch-beam" class="archie-beam" d="M-1.8 -3 L-10 -5.2 L-10 4.6 L-1.8 3 Z" stroke="none" fill="var(--archie-accent-2, #e2ddf0)"/><rect id="torch-body" x="0.2" y="-2.2" width="7.2" height="4.4" rx="1.8" fill="var(--archie-body, #ffffff)" stroke-width="1.6"/><rect id="torch-lens" class="archie-lens" x="-1.8" y="-2.7" width="2.5" height="5.4" rx="1" fill="var(--archie-accent, #7c6bb3)" stroke-width="1.5"/></g><path d="M37.6 29.6 L40.4 39.6 L37.2 40.6 L34.4 30.6 Z" fill="var(--archie-body, #ffffff)"/><path d="M23.6 27 Q31.6 24 39.6 27 L41 34.6 Q41 38.4 36.4 38.4 L27 38.4 Q23 38.4 23 34.6 Z" fill="var(--archie-body, #ffffff)"/><rect x="24.6" y="36" width="4.2" height="9.4" rx="2.1" fill="var(--archie-body, #ffffff)"/><rect x="30" y="36" width="4.2" height="9.4" rx="2.1" fill="var(--archie-body, #ffffff)"/><rect x="35.4" y="36" width="4.2" height="9.4" rx="2.1" fill="var(--archie-body, #ffffff)"/><g transform="translate(17.6 17.8)"><path class="archie-ear" d="M-7 -6 C-14 -5 -16 6 -13 15 C-11 20 -5 19 -5.5 13 C-6 7 -7 0 -6 -6 Z" fill="var(--archie-mass, #a396d6)" transform="rotate(-20)"/><path class="archie-ear" d="M7 -6 C14 -5 16 7 13 16 C11 21 5 20 5.5 14 C6 8 7 0 6 -6 Z" fill="var(--archie-mass, #a396d6)" transform="rotate(20)"/><path d="M0 -8.6 C4.8 -8.6 8 -5.2 8 -1 C8 2 9.2 4.4 9.2 6.2 C9.2 8.6 5.4 10.2 0 10.2 C-5.4 10.2 -9.2 8.6 -9.2 6.2 C-9.2 4.4 -8 2 -8 -1 C-8 -5.2 -4.8 -8.6 0 -8.6 Z" fill="var(--archie-body, #ffffff)"/><ellipse class="archie-nose" cx="0" cy="5.6" rx="2.4" ry="1.9" stroke="none" fill="var(--archie-ink, #111113)"/><ellipse class="archie-nose-sm" cx="0" cy="5.6" rx="3.2" ry="2.5" stroke="none" fill="var(--archie-ink, #111113)"/><circle cx="-3.5" cy="-1.6" r="1.4" stroke="none" fill="var(--archie-ink, #111113)"/><circle cx="3.5" cy="-1.6" r="1.4" stroke="none" fill="var(--archie-ink, #111113)"/><path d="M-5.6 -5 L-2.4 -3.6" fill="none" stroke-width="1.6"/><path d="M5.6 -5 L2.4 -3.6" fill="none" stroke-width="1.6"/></g></g><g id="accessory" class="archie-accessory"><g id="lamp" class="archie-lamp" transform="translate(17.6 17.8)"><path d="M-7.7 -1.8 Q0 -9.8 7.7 -1.8" fill="none"/><rect x="-2.4" y="-8.5" width="4.8" height="4" rx="1.3" fill="var(--archie-body, #ffffff)"/><circle id="lamp-lens" class="archie-lens" cx="0" cy="-6.5" r="1.25" stroke="none" fill="var(--archie-accent, #7c6bb3)"/><circle cx="0" cy="-6.5" r="1.25" fill="none" stroke-width="1.1"/></g><g id="goggles" class="archie-goggles" transform="translate(17.6 17.8)"><rect x="-7.8" y="-10.8" width="15.6" height="5.8" rx="2.9" fill="var(--archie-body, #ffffff)"/><circle cx="-3.9" cy="-7.9" r="2.6" stroke="none" fill="var(--archie-accent, #7c6bb3)"/><circle cx="-3.9" cy="-7.9" r="2.6" fill="none" stroke-width="1.4"/><circle cx="3.9" cy="-7.9" r="2.6" stroke="none" fill="var(--archie-accent, #7c6bb3)"/><circle cx="3.9" cy="-7.9" r="2.6" fill="none" stroke-width="1.4"/></g></g></g></svg>
